<svg width="207" height="89" viewBox="0 0 207 89" fill="none" xmlns="http://www.w3.org/2000/svg">
<g filter="url(#filter0_d_15_20)">
<path d="M48.545 16.5H40.545C31.7085 16.5 24.545 23.6634 24.545 32.5V40.5C24.545 49.3366 31.7085 56.5 40.545 56.5H48.545C57.3816 56.5 64.545 49.3366 64.545 40.5V32.5C64.545 23.6634 57.3816 16.5 48.545 16.5Z" fill="#0F88E2"/>
<path d="M38.7116 30.6667C38.7115 30.0698 39.0305 29.5183 39.5481 29.221C40.0657 28.9237 40.7028 28.9258 41.2183 29.2267L51.2158 35.0583C51.7293 35.3563 52.0455 35.9048 52.046 36.4984C52.0465 37.0921 51.7313 37.6412 51.2183 37.94L41.2183 43.7733C40.7028 44.0742 40.0657 44.0763 39.5481 43.779C39.0305 43.4817 38.7115 42.9302 38.7116 42.3333" stroke="white" stroke-width="1.66667" stroke-linecap="round" stroke-linejoin="round"/>
</g>
<path d="M80.558 44.7148C78.9796 44.7148 77.7232 44.2866 76.7888 43.4301C75.8544 42.5736 75.3872 41.3533 75.3872 39.7692V38.8595H78.2557V39.8001C78.2557 40.6348 78.4639 41.2689 78.8801 41.7023C79.2963 42.1357 79.8556 42.3524 80.558 42.3524C81.2558 42.3524 81.8116 42.1357 82.2252 41.7023C82.6389 41.2689 82.8457 40.6322 82.8457 39.7923V28.4941H85.6911V39.7614C85.6911 41.3481 85.2282 42.5703 84.3025 43.4281C83.3768 44.2859 82.1287 44.7148 80.558 44.7148ZM91.9418 44.7484C91.1801 44.7484 90.4946 44.6109 89.8855 44.3361C89.2763 44.0612 88.7956 43.6545 88.4432 43.116C88.0909 42.5774 87.9147 41.913 87.9147 41.1227C87.9147 40.4455 88.0418 39.8856 88.2959 39.443C88.5499 39.0004 88.8947 38.6466 89.3301 38.3815C89.7655 38.1163 90.2557 37.9158 90.8007 37.7799C91.3457 37.644 91.9091 37.5454 92.4909 37.4841C93.1916 37.4064 93.7591 37.3387 94.1935 37.2808C94.6279 37.223 94.9479 37.1299 95.1535 37.0017C95.359 36.8735 95.4618 36.6742 95.4618 36.4038V36.3471C95.4618 35.9515 95.3822 35.6168 95.2231 35.3429C95.0639 35.0691 94.8291 34.859 94.5186 34.7128C94.2081 34.5665 93.8238 34.4934 93.3657 34.4934C92.9011 34.4934 92.4982 34.5649 92.157 34.7078C91.8158 34.8508 91.5375 35.0366 91.3219 35.2651C91.1063 35.4937 90.9483 35.7412 90.8477 36.0076L88.2585 35.4766C88.4968 34.7667 88.8632 34.1808 89.3576 33.7187C89.852 33.2567 90.4421 32.9113 91.1277 32.6827C91.8133 32.4541 92.5556 32.3398 93.3546 32.3398C93.918 32.3398 94.488 32.4069 95.0645 32.5409C95.641 32.675 96.1699 32.8982 96.6513 33.2104C97.1327 33.5226 97.5201 33.9444 97.8136 34.4756C98.1071 35.0068 98.2538 35.6719 98.2538 36.4709V44.5H95.5829V42.844H95.4695C95.2947 43.1852 95.0499 43.5005 94.7349 43.7899C94.42 44.0794 94.0316 44.3115 93.5698 44.4862C93.1081 44.661 92.5654 44.7484 91.9418 44.7484ZM92.6576 42.673C93.2345 42.673 93.7333 42.5591 94.154 42.3314C94.5747 42.1036 94.9004 41.8008 95.1311 41.4228C95.3618 41.0448 95.4772 40.6342 95.4772 40.1911V38.7697C95.3856 38.8447 95.2317 38.9141 95.0157 38.9776C94.7997 39.0412 94.5565 39.0978 94.2859 39.1474C94.0153 39.1969 93.7504 39.2395 93.491 39.275C93.2316 39.3105 93.0114 39.3403 92.8303 39.3644C92.4112 39.4191 92.0342 39.5124 91.6992 39.6443C91.3642 39.7762 91.1007 39.9584 90.9088 40.1909C90.7168 40.4233 90.6209 40.7236 90.6209 41.0917C90.6209 41.4375 90.7089 41.7275 90.8851 41.9616C91.0613 42.1958 91.3021 42.3729 91.6074 42.4929C91.9128 42.613 92.2628 42.673 92.6576 42.673ZM106.145 44.7423C104.98 44.7423 103.967 44.4839 103.109 43.967C102.25 43.4501 101.586 42.7268 101.116 41.7971C100.646 40.8674 100.411 39.7866 100.411 38.5548C100.411 37.3093 100.646 36.2206 101.116 35.2886C101.586 34.3566 102.25 33.6321 103.109 33.1152C103.967 32.5983 104.98 32.3398 106.145 32.3398C106.816 32.3398 107.437 32.4266 108.009 32.6002C108.582 32.7738 109.094 33.0227 109.546 33.3468C109.998 33.6709 110.375 34.066 110.678 34.5319C110.981 34.9978 111.198 35.5231 111.329 36.1078L108.712 36.6573C108.639 36.3468 108.528 36.0659 108.379 35.8145C108.229 35.5631 108.048 35.3471 107.833 35.1663C107.619 34.9856 107.372 34.8471 107.093 34.751C106.814 34.6549 106.506 34.6069 106.169 34.6069C105.519 34.6069 104.978 34.7796 104.548 35.1251C104.117 35.4705 103.794 35.9396 103.578 36.5323C103.362 37.125 103.255 37.7966 103.255 38.5471C103.255 39.2859 103.362 39.9518 103.578 40.5447C103.794 41.1377 104.117 41.6077 104.548 41.9548C104.978 42.3018 105.519 42.4753 106.169 42.4753C106.51 42.4753 106.823 42.4255 107.107 42.3258C107.391 42.2261 107.643 42.083 107.863 41.8963C108.083 41.7097 108.268 41.4842 108.417 41.2198C108.566 40.9554 108.676 40.6621 108.747 40.3398L111.356 40.8855C111.23 41.487 111.014 42.0244 110.709 42.4975C110.404 42.9705 110.025 43.375 109.572 43.7109C109.119 44.0468 108.603 44.3026 108.025 44.4785C107.447 44.6544 106.82 44.7423 106.145 44.7423ZM119.059 32.4902V34.6782H112.239V32.4902H119.059ZM113.943 29.6328H116.736V41.1179C116.736 41.5519 116.829 41.8705 117.015 42.0738C117.201 42.277 117.508 42.3787 117.937 42.3787C118.061 42.3787 118.229 42.3637 118.439 42.3338C118.649 42.3038 118.819 42.2745 118.948 42.2459L119.388 44.4007C119.082 44.4956 118.769 44.5628 118.449 44.6025C118.129 44.6422 117.819 44.662 117.52 44.662C116.37 44.662 115.487 44.3758 114.87 43.8035C114.252 43.2311 113.943 42.4157 113.943 41.3573V29.6328ZM125.7 44.7423C124.534 44.7423 123.521 44.4839 122.661 43.967C121.801 43.4501 121.137 42.7268 120.667 41.7971C120.197 40.8674 119.962 39.7866 119.962 38.5548C119.962 37.3093 120.197 36.2206 120.667 35.2886C121.137 34.3566 121.801 33.6321 122.661 33.1152C123.521 32.5983 124.534 32.3398 125.7 32.3398C126.871 32.3398 127.886 32.5983 128.745 33.1152C129.605 33.6321 130.27 34.3566 130.74 35.2886C131.21 36.2206 131.445 37.3093 131.445 38.5548C131.445 39.7866 131.21 40.8674 130.74 41.7971C130.27 42.7268 129.605 43.4501 128.745 43.967C127.886 44.4839 126.871 44.7423 125.7 44.7423ZM125.7 42.4753C126.352 42.4753 126.894 42.2999 127.325 41.949C127.756 41.598 128.078 41.1255 128.29 40.5312C128.502 39.9369 128.608 39.2756 128.608 38.5471C128.608 37.8115 128.502 37.1462 128.29 36.5512C128.078 35.9562 127.756 35.4834 127.325 35.1328C126.894 34.7822 126.352 34.6069 125.7 34.6069C125.05 34.6069 124.511 34.7822 124.083 35.1328C123.655 35.4834 123.335 35.9551 123.123 36.5478C122.911 37.1405 122.805 37.8069 122.805 38.5471C122.805 39.2756 122.911 39.9369 123.123 40.5312C123.335 41.1255 123.655 41.598 124.083 41.949C124.511 42.2999 125.05 42.4753 125.7 42.4753ZM133.807 44.5V28.4941H138.131L141.172 36.7588C141.275 37.0648 141.393 37.4588 141.526 37.9409C141.658 38.423 141.794 38.9433 141.934 39.5017C142.075 40.0601 142.207 40.6058 142.331 41.1388C142.456 41.6718 142.56 42.1433 142.646 42.5535H142.067C142.157 42.1571 142.263 41.6947 142.386 41.1663C142.509 40.6379 142.641 40.0934 142.781 39.5326C142.922 38.9719 143.058 38.447 143.192 37.9581C143.325 37.4691 143.443 37.0693 143.547 36.7588L146.546 28.4941H150.88V44.5H148.017V36.4218C148.017 36.0795 148.021 35.6642 148.03 35.176C148.039 34.6877 148.05 34.1644 148.065 33.6061C148.08 33.0478 148.094 32.4836 148.107 31.9136C148.12 31.3435 148.129 30.8033 148.134 30.2928H148.333C148.19 30.854 148.035 31.4306 147.868 32.0225C147.701 32.6145 147.535 33.1885 147.37 33.7447C147.205 34.3008 147.048 34.81 146.9 35.2722C146.752 35.7344 146.625 36.1176 146.519 36.4218L143.561 44.5H141.127L138.123 36.4218C138.017 36.1222 137.892 35.7447 137.747 35.2894C137.602 34.8341 137.446 34.3306 137.278 33.7791C137.11 33.2275 136.941 32.6534 136.771 32.0569C136.6 31.4603 136.433 30.8723 136.27 30.2928H136.505C136.515 30.7712 136.526 31.2908 136.539 31.8517C136.553 32.4126 136.565 32.9756 136.578 33.5408C136.59 34.106 136.602 34.6384 136.613 35.1381C136.624 35.6379 136.629 36.0658 136.629 36.4218V44.5H133.807ZM158.765 44.7423C157.599 44.7423 156.586 44.4839 155.726 43.967C154.866 43.4501 154.201 42.7268 153.731 41.7971C153.261 40.8674 153.026 39.7866 153.026 38.5548C153.026 37.3093 153.261 36.2206 153.731 35.2886C154.201 34.3566 154.866 33.6321 155.726 33.1152C156.586 32.5983 157.599 32.3398 158.765 32.3398C159.935 32.3398 160.95 32.5983 161.81 33.1152C162.669 33.6321 163.334 34.3566 163.804 35.2886C164.274 36.2206 164.509 37.3093 164.509 38.5548C164.509 39.7866 164.274 40.8674 163.804 41.7971C163.334 42.7268 162.669 43.4501 161.81 43.967C160.95 44.4839 159.935 44.7423 158.765 44.7423ZM158.765 42.4753C159.417 42.4753 159.958 42.2999 160.389 41.949C160.821 41.598 161.142 41.1255 161.354 40.5312C161.566 39.9369 161.672 39.2756 161.672 38.5471C161.672 37.8115 161.566 37.1462 161.354 36.5512C161.142 35.9562 160.821 35.4834 160.389 35.1328C159.958 34.7822 159.417 34.6069 158.765 34.6069C158.115 34.6069 157.576 34.7822 157.148 35.1328C156.72 35.4834 156.4 35.9551 156.188 36.5478C155.976 37.1405 155.87 37.8069 155.87 38.5471C155.87 39.2756 155.976 39.9369 156.188 40.5312C156.4 41.1255 156.72 41.598 157.148 41.949C157.576 42.2999 158.115 42.4753 158.765 42.4753ZM169.726 44.5L165.251 32.4902H168.237L170.434 39.0206C170.691 39.7841 170.911 40.5534 171.096 41.3287C171.281 42.104 171.472 42.8895 171.669 43.6853H170.972C171.166 42.8895 171.355 42.1047 171.539 41.3306C171.722 40.5566 171.939 39.7866 172.188 39.0206L174.37 32.4902H177.333L172.85 44.5H169.726ZM178.678 44.5V32.4902H181.47V44.5H178.678ZM180.077 30.7912C179.632 30.7912 179.25 30.6414 178.931 30.3416C178.612 30.0418 178.452 29.6821 178.452 29.2624C178.452 28.8342 178.612 28.472 178.931 28.176C179.25 27.8799 179.632 27.7319 180.077 27.7319C180.526 27.7319 180.91 27.8798 181.23 28.1755C181.549 28.4713 181.709 28.8335 181.709 29.2622C181.709 29.6823 181.549 30.0422 181.23 30.3418C180.91 30.6414 180.526 30.7912 180.077 30.7912ZM189.31 44.7423C188.106 44.7423 187.068 44.489 186.196 43.9824C185.323 43.4758 184.653 42.7606 184.184 41.8368C183.715 40.913 183.48 39.8236 183.48 38.5686C183.48 37.3342 183.712 36.2499 184.175 35.3156C184.639 34.3814 185.294 33.6518 186.142 33.127C186.989 32.6022 187.984 32.3398 189.127 32.3398C189.863 32.3398 190.561 32.4584 191.221 32.6954C191.882 32.9325 192.468 33.2971 192.979 33.7894C193.491 34.2817 193.893 34.9097 194.186 35.6733C194.479 36.437 194.625 37.3468 194.625 38.4027V39.2741H184.799V37.3784H193.232L191.927 37.9413C191.927 37.2618 191.822 36.6661 191.612 36.1544C191.403 35.6426 191.092 35.244 190.68 34.9586C190.267 34.6731 189.755 34.5304 189.143 34.5304C188.53 34.5304 188.009 34.6754 187.578 34.9654C187.148 35.2555 186.819 35.6426 186.594 36.1269C186.368 36.6111 186.255 37.1495 186.255 37.7419V39.055C186.255 39.8141 186.384 40.4544 186.642 40.9759C186.899 41.4974 187.261 41.8905 187.727 42.155C188.193 42.4195 188.734 42.5518 189.348 42.5518C189.756 42.5518 190.127 42.4935 190.461 42.3767C190.795 42.26 191.082 42.0857 191.323 41.8538C191.564 41.6219 191.747 41.3354 191.875 40.9942L194.44 41.5253C194.248 42.1681 193.919 42.7309 193.452 43.2137C192.985 43.6966 192.402 44.072 191.702 44.3402C191.003 44.6083 190.206 44.7423 189.31 44.7423ZM201.375 44.7423C200.456 44.7423 199.641 44.6101 198.93 44.3457C198.22 44.0813 197.638 43.6954 197.185 43.188C196.733 42.6805 196.436 42.065 196.295 41.3414L198.909 40.8507C199.071 41.4425 199.362 41.8827 199.783 42.1713C200.204 42.4599 200.753 42.6042 201.43 42.6042C202.119 42.6042 202.665 42.4665 203.068 42.1909C203.472 41.9153 203.674 41.5756 203.674 41.1716C203.674 40.8233 203.541 40.5364 203.276 40.311C203.01 40.0855 202.602 39.9138 202.051 39.7958L200.007 39.3541C198.872 39.1091 198.025 38.7073 197.467 38.1486C196.909 37.5898 196.63 36.8699 196.63 35.9887C196.63 35.2471 196.834 34.6034 197.242 34.0577C197.651 33.512 198.219 33.0893 198.945 32.7895C199.671 32.4897 200.513 32.3398 201.471 32.3398C202.38 32.3398 203.162 32.4685 203.817 32.7259C204.472 32.9833 205.002 33.3435 205.408 33.8064C205.813 34.2693 206.095 34.8133 206.254 35.4383L203.764 35.9243C203.625 35.5075 203.376 35.1539 203.018 34.8636C202.659 34.5733 202.156 34.4281 201.509 34.4281C200.917 34.4281 200.422 34.5574 200.024 34.8159C199.626 35.0744 199.428 35.4092 199.428 35.8203C199.428 36.1689 199.558 36.4575 199.82 36.6861C200.082 36.9147 200.518 37.0959 201.13 37.2297L203.174 37.6594C204.311 37.9017 205.156 38.2913 205.709 38.8281C206.261 39.365 206.537 40.0568 206.537 40.9035C206.537 41.6621 206.318 42.3294 205.879 42.9056C205.44 43.4819 204.833 43.932 204.058 44.2562C203.282 44.5803 202.387 44.7423 201.375 44.7423Z" fill="#E6F4FF"/>
<defs>
<filter id="filter0_d_15_20" x="0.545013" y="0.5" width="88" height="88" filterUnits="userSpaceOnUse" color-interpolation-filters="sRGB">
<feFlood flood-opacity="0" result="BackgroundImageFix"/>
<feColorMatrix in="SourceAlpha" type="matrix" values="0 0 0 0 0 0 0 0 0 0 0 0 0 0 0 0 0 0 127 0" result="hardAlpha"/>
<feOffset dy="8"/>
<feGaussianBlur stdDeviation="12"/>
<feComposite in2="hardAlpha" operator="out"/>
<feColorMatrix type="matrix" values="0 0 0 0 0 0 0 0 0 0 0 0 0 0 0 0 0 0 0.08 0"/>
<feBlend mode="normal" in2="BackgroundImageFix" result="effect1_dropShadow_15_20"/>
<feBlend mode="normal" in="SourceGraphic" in2="effect1_dropShadow_15_20" result="shape"/>
</filter>
</defs>
</svg>
